<svg width="32" height="32" viewBox="0 0 32 32" fill="none" xmlns="http://www.w3.org/2000/svg">
  <!-- Background circle with gradient -->
  <circle cx="16" cy="16" r="16" fill="url(#gradient1)"/>

  <!-- Main house icon -->
  <path d="M8 18.5L16 10.5L24 18.5V26C24 26.5523 23.5523 27 23 27H9C8.44772 27 8 26.5523 8 26V18.5Z" fill="white" fill-opacity="0.95"/>

  <!-- Roof -->
  <path d="M6 17L16 7L26 17L24.5 18.5L16 10L7.5 18.5L6 17Z" fill="white"/>

  <!-- Door -->
  <rect x="14" y="22" width="4" height="5" rx="2" fill="url(#gradient2)"/>

  <!-- Windows -->
  <rect x="10" y="19" width="3" height="3" rx="0.5" fill="url(#gradient2)" fill-opacity="0.8"/>
  <rect x="19" y="19" width="3" height="3" rx="0.5" fill="url(#gradient2)" fill-opacity="0.8"/>

  <!-- Decorative elements -->
  <circle cx="16" cy="8" r="1.5" fill="white" fill-opacity="0.9"/>

  <!-- Gradients -->
  <defs>
    <linearGradient id="gradient1" x1="0%" y1="0%" x2="100%" y2="100%">
      <stop offset="0%" style="stop-color:#3B82F6;stop-opacity:1" />
      <stop offset="50%" style="stop-color:#8B5CF6;stop-opacity:1" />
      <stop offset="100%" style="stop-color:#06B6D4;stop-opacity:1" />
    </linearGradient>
    <linearGradient id="gradient2" x1="0%" y1="0%" x2="100%" y2="100%">
      <stop offset="0%" style="stop-color:#1E40AF;stop-opacity:1" />
      <stop offset="100%" style="stop-color:#3B82F6;stop-opacity:1" />
    </linearGradient>
  </defs>
</svg>